<?xml version="1.0" encoding="UTF-8" standalone="no"?>
<!-- Created with Inkscape (http://www.inkscape.org/) -->

<svg
   xmlns:dc="http://purl.org/dc/elements/1.1/"
   xmlns:cc="http://creativecommons.org/ns#"
   xmlns:rdf="http://www.w3.org/1999/02/22-rdf-syntax-ns#"
   xmlns:svg="http://www.w3.org/2000/svg"
   xmlns="http://www.w3.org/2000/svg"
   xmlns:sodipodi="http://sodipodi.sourceforge.net/DTD/sodipodi-0.dtd"
   xmlns:inkscape="http://www.inkscape.org/namespaces/inkscape"
   version="1.1"
   id="svg202"
   xml:space="preserve"
   width="800"
   height="770"
   viewBox="0 0 800 770.00001"
   sodipodi:docname="logomarca.svg"
   inkscape:version="0.92.4 (5da689c313, 2019-01-14)"><metadata
     id="metadata208"><rdf:RDF><cc:Work
         rdf:about=""><dc:format>image/svg+xml</dc:format><dc:type
           rdf:resource="http://purl.org/dc/dcmitype/StillImage" /><dc:title></dc:title></cc:Work></rdf:RDF></metadata><defs
     id="defs206"><clipPath
       clipPathUnits="userSpaceOnUse"
       id="clipPath218"><path
         d="M 0,1984.74 H 2445.828 V 0 H 0 Z"
         id="path216"
         inkscape:connector-curvature="0" /></clipPath></defs><sodipodi:namedview
     pagecolor="#ffffff"
     bordercolor="#666666"
     borderopacity="1"
     objecttolerance="10"
     gridtolerance="10"
     guidetolerance="10"
     inkscape:pageopacity="0"
     inkscape:pageshadow="2"
     inkscape:window-width="1920"
     inkscape:window-height="1017"
     id="namedview204"
     showgrid="false"
     inkscape:zoom="0.50448078"
     inkscape:cx="1279.6326"
     inkscape:cy="660.43716"
     inkscape:window-x="-8"
     inkscape:window-y="-8"
     inkscape:window-maximized="1"
     inkscape:current-layer="g210" /><g
     id="g210"
     inkscape:groupmode="layer"
     inkscape:label="cor_vertical_pdf"
     transform="matrix(1.3333333,0,0,-1.3333333,0,769.99993)"><g
       clip-path="url(#clipPath218)"
       id="g214"
       transform="matrix(0.56652892,0,0,0.5658474,-396.31514,-451.01348)"><g
         transform="translate(1097.8647,245.4102)"
         id="g220" /><g
         transform="translate(931.8037,277.0625)"
         id="g224" /><g
         transform="translate(454.4595,464.5078)"
         id="g228" /><g
         transform="translate(2085.5063,229.3896)"
         id="g232" /><g
         transform="translate(1747.2603,379.1924)"
         id="g236" /><g
         transform="translate(1544.2036,997.4834)"
         id="g240"><path
           inkscape:connector-curvature="0"
           id="path242"
           style="fill:#c81d2a;fill-opacity:1;fill-rule:nonzero;stroke:none"
           d="M 0,0 C 0,92.26 -74.798,167.072 -167.071,167.072 -259.35,167.072 -334.177,92.26 -334.177,0 c 0,-92.306 74.827,-167.104 167.106,-167.104 C -74.798,-167.104 0,-92.306 0,0" /></g><g
         transform="translate(1358.4771,1277.9365)"
         id="g244"><path
           inkscape:connector-curvature="0"
           id="path246"
           style="fill:#1a4a24;fill-opacity:1;fill-rule:nonzero;stroke:none"
           d="m 0,0 c 0,0 -182.642,0.089 -409.959,0.089 -101.764,0 -248.968,2.349 -248.968,-171.362 v -161.2 c 0,-152.798 147.204,-148.392 248.968,-148.392 h 47.877 180.322 v 214.949 c 0,125.571 99.426,185.875 200.415,185.875 122.366,0 200.428,-77.398 200.428,-188.046 v -212.778 h 181.07 v 309.592 C 400.153,0.089 257.005,0 154.166,0 152.697,0 56.692,-0.029 55.224,-0.029 Z" /></g><g
         transform="translate(1099.7017,1336.7725)"
         id="g248"><path
           inkscape:connector-curvature="0"
           id="path250"
           style="fill:#2b984e;fill-opacity:1;fill-rule:nonzero;stroke:none"
           d="m 0,0 c 0,0 182.644,-0.089 409.961,-0.089 101.765,0 248.968,-2.35 248.968,171.363 v 161.2 c 0,152.8 -147.203,148.392 -248.968,148.392 H 362.086 181.763 V 265.915 c 0,-125.57 -99.431,-185.874 -200.415,-185.874 -122.369,0 -200.428,77.398 -200.428,188.046 V 480.866 H -400.152 V 171.274 C -400.152,-0.089 -257.002,0 -154.165,0 c 1.468,0 97.474,0.029 98.943,0.029 z" /></g><g
         transform="translate(913.96,1617.2568)"
         id="g252"><path
           inkscape:connector-curvature="0"
           id="path254"
           style="fill:#ef2e32;fill-opacity:1;fill-rule:nonzero;stroke:none"
           d="m 0,0 c 0,-92.261 74.813,-167.104 167.103,-167.104 92.275,0 167.073,74.843 167.073,167.104 0,92.289 -74.798,167.074 -167.073,167.074 C 74.813,167.074 0,92.289 0,0" /></g></g></g></svg>